<svg class='w2 h2' viewBox="0 0 64 64" version="1.1" xmlns="http://www.w3.org/2000/svg" xmlns:xlink="http://www.w3.org/1999/xlink">
  <g stroke="none" fill="currentColor" fill-rule="evenodd">
    <path d="M34.5531915,28.4255319 C39.5728552,21.3980027 55.4482366,19.3048907 55.985997,38.6382979 L56,38.6382979 L56,56 L45.787234,56 L45.787234,39.6595745 C45.787234,30.4680851 35.5744681,28.4255319 35.5744681,40.6808511 L35.5744681,56 L25.3617021,56 L25.3617021,34.5531915 L25.3617021,24.3404255 L34.5531915,24.3404255 L34.5531915,28.4255319 Z M14.1276596,20.2553191 C17.5118725,20.2553191 20.2553191,17.5118725 20.2553191,14.1276596 C20.2553191,10.7434466 17.5118725,8 14.1276596,8 C10.7434466,8 8,10.7434466 8,14.1276596 C8,17.5118725 10.7434466,20.2553191 14.1276596,20.2553191 Z M9.0212766,24.3404255 L19.2340426,24.3404255 L19.2340426,56 L9.0212766,56 L9.0212766,24.3404255 Z"></path>
  </g>
</svg>
